<svg xmlns="http://www.w3.org/2000/svg" width="26" height="322" fill="none"><path fill="#FAFBFF" d="M19 7H0v308h19z"/><circle cx="7" cy="7" r="7" fill="#0E0E10" transform="matrix(-1 0 0 1 26 0)"/><circle cx="6" cy="6" r="6" fill="#0E0E10" transform="matrix(-1 0 0 1 26 18)"/><circle cx="7" cy="7" r="7" fill="#0E0E10" transform="matrix(-1 0 0 1 26 34)"/><circle cx="6" cy="6" r="6" fill="#0E0E10" transform="matrix(-1 0 0 1 26 52)"/><circle cx="6" cy="6" r="6" fill="#0E0E10" transform="matrix(-1 0 0 1 26 68)"/><circle cx="6" cy="6" r="6" fill="#0E0E10" transform="matrix(-1 0 0 1 26 84)"/><circle cx="6" cy="6" r="6" fill="#0E0E10" transform="matrix(-1 0 0 1 26 100)"/><circle cx="6" cy="6" r="6" fill="#0E0E10" transform="matrix(-1 0 0 1 26 116)"/><circle cx="6" cy="6" r="6" fill="#0E0E10" transform="matrix(-1 0 0 1 26 132)"/><circle cx="6" cy="6" r="6" fill="#0E0E10" transform="matrix(-1 0 0 1 26 148)"/><circle cx="6" cy="6" r="6" fill="#0E0E10" transform="matrix(-1 0 0 1 26 164)"/><circle cx="6" cy="6" r="6" fill="#0E0E10" transform="matrix(-1 0 0 1 26 180)"/><circle cx="6" cy="6" r="6" fill="#0E0E10" transform="matrix(-1 0 0 1 26 196)"/><circle cx="6" cy="6" r="6" fill="#0E0E10" transform="matrix(-1 0 0 1 26 212)"/><circle cx="6" cy="6" r="6" fill="#0E0E10" transform="matrix(-1 0 0 1 26 228)"/><circle cx="6" cy="6" r="6" fill="#0E0E10" transform="matrix(-1 0 0 1 26 244)"/><circle cx="6" cy="6" r="6" fill="#0E0E10" transform="matrix(-1 0 0 1 26 260)"/><circle cx="6" cy="6" r="6" fill="#0E0E10" transform="matrix(-1 0 0 1 26 276)"/><circle cx="6" cy="6" r="6" fill="#0E0E10" transform="matrix(-1 0 0 1 26 292)"/><circle cx="7" cy="7" r="7" fill="#0E0E10" transform="matrix(-1 0 0 1 26 308)"/></svg>