<svg xmlns="http://www.w3.org/2000/svg" width="163" height="43" viewBox="0 0 163 43" fill="none">
    <path d="M1.99581 0.000488281L0.643555 0.000488281L0.643555 42.8011H1.99581V0.000488281Z" fill="#0E0E10"/>
    <path d="M6.09152 0.000488281L4.73926 0.000488281V42.8011H6.09152V0.000488281Z" fill="#0E0E10"/>
    <path d="M12.8913 0.000488281L11.5391 0.000488281V42.8011H12.8913V0.000488281Z" fill="#0E0E10"/>
    <path d="M17.0086 0.000488281L15.6367 0.000488281V42.8011H17.0086V0.000488281Z" fill="#0E0E10"/>
    <path d="M21.0834 0L18.3593 0V42.8007H21.0834V0Z" fill="#0E0E10"/>
    <path d="M27.9031 0.000488281L26.5312 0.000488281V42.8011H27.9031V0.000488281Z" fill="#0E0E10"/>
    <path d="M31.9989 0L30.627 0V42.8007H31.9989V0Z" fill="#0E0E10"/>
    <path d="M40.1536 0.000488281L37.4295 0.000488281V42.8011H40.1536V0.000488281Z" fill="#0E0E10"/>
    <path d="M42.8767 0.000488281L41.5244 0.000488281V42.8011H42.8767V0.000488281Z" fill="#0E0E10"/>
    <path d="M49.6982 0L48.3263 0V42.8007H49.6982V0Z" fill="#0E0E10"/>
    <path d="M53.7739 0L51.0498 0V42.8007H53.7739V0Z" fill="#0E0E10"/>
    <path d="M57.8689 0.000488281L56.4971 0.000488281V42.8011H57.8689V0.000488281Z" fill="#0E0E10"/>
    <path d="M64.6894 0.000488281L63.3176 0.000488281V42.8011H64.6894V0.000488281Z" fill="#0E0E10"/>
    <path d="M70.138 0L67.4139 0V42.8007H70.138V0Z" fill="#0E0E10"/>
    <path d="M72.8631 0.000488281L71.4912 0.000488281V42.8011H72.8631V0.000488281Z" fill="#0E0E10"/>
    <path d="M76.938 0.000488281L74.2139 0.000488281V42.8011H76.938V0.000488281Z" fill="#0E0E10"/>
    <path d="M81.0352 0L79.6633 0V42.8007H81.0352V0Z" fill="#0E0E10"/>
    <path d="M87.8357 0.000488281L86.4834 0.000488281V42.8011H87.8357V0.000488281Z" fill="#0E0E10"/>
    <path d="M91.9321 0L89.208 0V42.8007H91.9321V0Z" fill="#0E0E10"/>
    <path d="M98.7499 0.000488281L97.3781 0.000488281V42.8011H98.7499V0.000488281Z" fill="#0E0E10"/>
    <path d="M102.827 0L101.455 0V42.8007H102.827V0Z" fill="#0E0E10"/>
    <path d="M108.276 0.000488281L105.552 0.000488281V42.8011H108.276V0.000488281Z" fill="#0E0E10"/>
    <path d="M111 0.000488281L109.628 0.000488281V42.8011H111V0.000488281Z" fill="#0E0E10"/>
    <path d="M117.8 0L116.447 0V42.8007H117.8V0Z" fill="#0E0E10"/>
    <path d="M124.62 0L120.524 0V42.8007H124.62V0Z" fill="#0E0E10"/>
    <path d="M130.069 0.000488281L127.345 0.000488281V42.8011H130.069V0.000488281Z" fill="#0E0E10"/>
    <path d="M132.812 0.000976563L131.44 0.000976562V42.8016H132.812V0.000976563Z" fill="#0E0E10"/>
    <path d="M138.24 0L134.164 0V42.8007H138.24V0Z" fill="#0E0E10"/>
    <path d="M145.061 0.000488281L139.612 0.000488281V42.8011H145.061V0.000488281Z" fill="#0E0E10"/>
    <path d="M150.488 0.000488281L146.412 0.000488281V42.8011H150.488V0.000488281Z" fill="#0E0E10"/>
    <path d="M154.586 0L151.862 0V42.8007H154.586V0Z" fill="#0E0E10"/>
    <path d="M160.034 0.000488281L155.958 0.000488281V42.8011H160.034V0.000488281Z" fill="#0E0E10"/>
    <path d="M162.758 0.000488281L161.405 0.000488281V42.8011H162.758V0.000488281Z" fill="#0E0E10"/>
</svg>