<svg xmlns="http://www.w3.org/2000/svg" width="907" height="286" viewBox="0 0 907 286" fill="none">
    <g filter="url(#filter0_d_1_755)">
        <path d="M40.5 58.5751C40.5 48.5729 40.5 43.5718 42.4466 39.7514C44.1588 36.391 46.891 33.6588 50.2514 31.9466C54.0718 30 59.0729 30 69.0751 30H453.5L600.391 30C602.762 30 603.948 30 605.089 30.1478C607.853 30.5056 610.495 31.5052 612.803 33.0666C613.757 33.7116 614.645 34.4963 616.422 36.0658C618.402 37.8147 619.392 38.6892 620.425 39.2086C622.949 40.4782 625.925 40.4782 628.449 39.2086C629.482 38.6892 630.472 37.8147 632.452 36.0658C634.229 34.4963 635.118 33.7116 636.071 33.0666C638.38 31.5052 641.021 30.5056 643.785 30.1478C644.927 30 646.112 30 648.483 30H837.925C847.927 30 852.928 30 856.749 31.9466C860.109 33.6588 862.841 36.391 864.553 39.7514C866.5 43.5718 866.5 48.5729 866.5 58.5751V206.809C866.5 216.811 866.5 221.812 864.553 225.632C862.841 228.993 860.109 231.725 856.749 233.437C852.928 235.384 847.927 235.384 837.925 235.384H648.483C646.112 235.384 644.927 235.384 643.785 235.236C641.021 234.878 638.38 233.879 636.071 232.317C635.118 231.672 634.229 230.887 632.452 229.318C630.472 227.569 629.482 226.695 628.449 226.175C625.925 224.906 622.949 224.906 620.425 226.175C619.392 226.695 618.402 227.569 616.422 229.318C614.645 230.887 613.757 231.672 612.803 232.317C610.495 233.879 607.853 234.878 605.089 235.236C603.948 235.384 602.762 235.384 600.391 235.384H453.5H69.0751C59.0729 235.384 54.0718 235.384 50.2514 233.437C46.891 231.725 44.1588 228.993 42.4466 225.632C40.5 221.812 40.5 216.811 40.5 206.809V58.5751Z" fill="#848487"/>
    </g>
    <defs>
        <filter id="filter0_d_1_755" x="0.5" y="0" width="906" height="285.384" filterUnits="userSpaceOnUse" color-interpolation-filters="sRGB">
            <feFlood flood-opacity="0" result="BackgroundImageFix"/>
            <feColorMatrix in="SourceAlpha" type="matrix" values="0 0 0 0 0 0 0 0 0 0 0 0 0 0 0 0 0 0 127 0" result="hardAlpha"/>
            <feOffset dy="10"/>
            <feGaussianBlur stdDeviation="20"/>
            <feComposite in2="hardAlpha" operator="out"/>
            <feColorMatrix type="matrix" values="0 0 0 0 0.054902 0 0 0 0 0.054902 0 0 0 0 0.0627451 0 0 0 0.2 0"/>
            <feBlend mode="normal" in2="BackgroundImageFix" result="effect1_dropShadow_1_755"/>
            <feBlend mode="normal" in="SourceGraphic" in2="effect1_dropShadow_1_755" result="shape"/>
        </filter>
    </defs>
</svg>