<svg xmlns="http://www.w3.org/2000/svg" width="1005" height="310" viewBox="0 0 1005 310" fill="#FAFBFF">
    <defs>
        <filter id="shadow">
            <feDropShadow dx="0" dy="10" stdDeviation="10" flood-color="rgba(0, 0, 0, 0.20)"/>
        </filter>
    </defs>
    <path d="M40 50C40 38.9543 48.9543 30 60 30H502.5L669.69 30C674.567 30 679.275 31.7816 682.93 35.0099L687.305 38.8736C691.086 42.2136 696.763 42.2136 700.545 38.8736L704.919 35.0099C708.574 31.7816 713.283 30 718.159 30H945C956.046 30 965 38.9543 965 50V240C965 251.046 956.046 260 945 260H718.159C713.283 260 708.574 258.218 704.919 254.99L700.545 251.126C696.763 247.786 691.086 247.786 687.305 251.126L682.93 254.99C679.275 258.218 674.567 260 669.69 260H502.5H60C48.9543 260 40 251.046 40 240V50Z" fill="#FAFBFF" filter="url(#shadow)"/>
</svg>
