<svg width="26" height="322" viewBox="0 0 26 322" fill="none" xmlns="http://www.w3.org/2000/svg">
    <rect width="19" height="308" transform="matrix(-1 0 0 1 19 7)" fill="#FAFBFF"/>
    <circle cx="7" cy="7" r="7" transform="matrix(-1 0 0 1 26 0)" fill="#0E0E10"/>
    <circle cx="6" cy="6" r="6" transform="matrix(-1 0 0 1 26 18)" fill="#0E0E10"/>
    <circle cx="7" cy="7" r="7" transform="matrix(-1 0 0 1 26 34)" fill="#0E0E10"/>
    <circle cx="6" cy="6" r="6" transform="matrix(-1 0 0 1 26 52)" fill="#0E0E10"/>
    <circle cx="6" cy="6" r="6" transform="matrix(-1 0 0 1 26 68)" fill="#0E0E10"/>
    <circle cx="6" cy="6" r="6" transform="matrix(-1 0 0 1 26 84)" fill="#0E0E10"/>
    <circle cx="6" cy="6" r="6" transform="matrix(-1 0 0 1 26 100)" fill="#0E0E10"/>
    <circle cx="6" cy="6" r="6" transform="matrix(-1 0 0 1 26 116)" fill="#0E0E10"/>
    <circle cx="6" cy="6" r="6" transform="matrix(-1 0 0 1 26 132)" fill="#0E0E10"/>
    <circle cx="6" cy="6" r="6" transform="matrix(-1 0 0 1 26 148)" fill="#0E0E10"/>
    <circle cx="6" cy="6" r="6" transform="matrix(-1 0 0 1 26 164)" fill="#0E0E10"/>
    <circle cx="6" cy="6" r="6" transform="matrix(-1 0 0 1 26 180)" fill="#0E0E10"/>
    <circle cx="6" cy="6" r="6" transform="matrix(-1 0 0 1 26 196)" fill="#0E0E10"/>
    <circle cx="6" cy="6" r="6" transform="matrix(-1 0 0 1 26 212)" fill="#0E0E10"/>
    <circle cx="6" cy="6" r="6" transform="matrix(-1 0 0 1 26 228)" fill="#0E0E10"/>
    <circle cx="6" cy="6" r="6" transform="matrix(-1 0 0 1 26 244)" fill="#0E0E10"/>
    <circle cx="6" cy="6" r="6" transform="matrix(-1 0 0 1 26 260)" fill="#0E0E10"/>
    <circle cx="6" cy="6" r="6" transform="matrix(-1 0 0 1 26 276)" fill="#0E0E10"/>
    <circle cx="6" cy="6" r="6" transform="matrix(-1 0 0 1 26 292)" fill="#0E0E10"/>
    <circle cx="7" cy="7" r="7" transform="matrix(-1 0 0 1 26 308)" fill="#0E0E10"/>
</svg>
